<svg xmlns="http://www.w3.org/2000/svg" width="32" height="20" viewBox="0 0 32 20">
    <g fill="none" fill-rule="evenodd">
        <path fill="#75BEE3" d="M29.6 0h-28C.8 0 0 .8 0 1.6v16C0 19.2.8 20 2.4 20h27.2c1.6 0 2.4-.8 2.4-2.4V2.4C32 .8 31.2 0 29.6 0"/>
        <path fill="#FEFEFE" d="M19.701 9.031v.916h2.617v1.02H19.7v1h2.935l1.363-1.472-1.306-1.464h-2.992zm-12.083-.19l-.819 2.004h1.637L7.618 8.84zm10.9-.848h4.795l1.467 1.642 1.513-1.642h1.467l-2.229 2.521 2.229 2.492h-1.533l-1.467-1.661-1.522 1.661h-4.72V7.993zm-11.765 0H8.53l2.021 4.74v-4.74H12.5l1.561 3.399 1.44-3.4h1.937v5.017h-1.18l-.009-3.93-1.719 3.93h-1.055l-1.73-3.93v3.93H9.32l-.46-1.125H6.375l-.46 1.124H4.617l2.137-5.015zM6.047 7L3 13.99h3.648l.452-1.114h1.034l.452 1.115H12.6v-.85l.358.85h2.077l.358-.869v.869h8.35l1.016-1.086.951 1.086L30 14l-3.057-3.485L30 7h-4.222l-.989 1.066L23.869 7h-9.086l-.78 1.804L13.205 7h-3.64v.822L9.16 7H6.047z"/>
    </g>
</svg>
