<svg xmlns="http://www.w3.org/2000/svg" xmlns:xlink="http://www.w3.org/1999/xlink" width="73" height="47" viewBox="0 0 73 47">
    <defs>
        <linearGradient id="c" x1="50%" x2="50%" y1="0%" y2="100%">
            <stop offset="0%" stop-color="#FFF"/>
            <stop offset="100%" stop-color="#E0E0E0"/>
        </linearGradient>
        <rect id="b" width="65" height="39" rx="3"/>
        <filter id="a" width="121.5%" height="135.9%" x="-10.8%" y="-12.8%" filterUnits="objectBoundingBox">
            <feOffset dy="2" in="SourceAlpha" result="shadowOffsetOuter1"/>
            <feGaussianBlur in="shadowOffsetOuter1" result="shadowBlurOuter1" stdDeviation="2"/>
            <feColorMatrix in="shadowBlurOuter1" values="0 0 0 0 0 0 0 0 0 0 0 0 0 0 0 0 0 0 0.5 0"/>
        </filter>
    </defs>
    <g fill="none" fill-rule="evenodd">
        <g transform="translate(4 2)">
            <use fill="#000" filter="url(#a)" xlink:href="#b"/>
            <use fill="url(#c)" xlink:href="#b"/>
        </g>
        <path fill="#221E1F" d="M16.291 21.284h2.211V9.8h-2.21zM19.199 21.284h.685V9.8H19.2zM20.48 21.284h1.227V9.8H20.48zM22.889 21.284h.686V9.8h-.686zM23.872 21.284h.528V9.8h-.528zM14.61 21.284h.686V9.8h-.685zM13.1 21.284h1.226V9.8H13.1zM28.062 21.284h2.21V9.8h-2.21zM30.968 21.284h.686V9.8h-.686zM32.25 21.284h1.227V9.8H32.25zM34.66 21.284h.684V9.8h-.685zM35.642 21.284h.528V9.8h-.528zM26.38 21.284h.685V9.8h-.685zM24.87 21.284h1.225V9.8H24.87zM37.038 21.284h1.225V9.8h-1.225zM39.447 21.284h.683V9.8h-.683zM40.43 21.284h.528V9.8h-.529zM42.938 21.284h.684V9.8h-.684zM41.427 21.284h1.227V9.8h-1.227zM44.534 21.284h.684V9.8h-.684zM45.516 21.284h.53V9.8h-.53zM48.025 21.284h.685V9.8h-.685zM46.513 21.284h1.227V9.8h-1.227zM49.308 21.284h2.209V9.8h-2.21zM52.213 21.284h.685V9.8h-.685zM53.496 21.284h1.227V9.8h-1.227zM55.904 21.284h.686V9.8h-.686zM56.887 21.284h.527V9.8h-.527zM58.284 21.284h1.225V9.8h-1.225z"/>
        <g fill="#231F20">
            <path d="M14.356 30.612c.188.034.467.044.81.044 1 0 1.922-.366 1.922-1.455 0-1.022-.877-1.444-1.933-1.444h-.8v2.855zm0-3.588h.877c1.022 0 1.622-.533 1.622-1.255 0-.878-.667-1.222-1.644-1.222-.444 0-.7.033-.855.066v2.41zm-.967-3.066c.422-.089 1.088-.155 1.766-.155.967 0 1.589.166 2.056.544.388.29.622.733.622 1.323 0 .721-.478 1.354-1.267 1.643v.022c.71.177 1.544.767 1.544 1.878 0 .644-.255 1.133-.633 1.499-.522.478-1.366.7-2.588.7-.666 0-1.177-.044-1.5-.089v-7.365zM22.001 27.646c0 1.6.866 3.033 2.388 3.033 1.533 0 2.4-1.41 2.4-3.11 0-1.489-.778-3.044-2.389-3.044-1.6 0-2.399 1.477-2.399 3.12m5.81-.12c0 2.576-1.567 3.942-3.477 3.942-1.977 0-3.367-1.532-3.367-3.798 0-2.378 1.479-3.933 3.478-3.933 2.044 0 3.366 1.567 3.366 3.788M31.069 23.858h.965v6.676h3.2v.812h-4.165zM42.19 27.835h-2.91v2.699h3.244v.811h-4.211v-7.487h4.044v.81H39.28v2.368h2.91zM47.38 24.68h-2.277v-.822h5.543v.822h-2.288v6.665h-.978zM53.77 27.646c0 1.6.866 3.033 2.388 3.033 1.533 0 2.399-1.41 2.399-3.11 0-1.489-.777-3.044-2.388-3.044-1.6 0-2.4 1.477-2.4 3.12m5.81-.12c0 2.576-1.566 3.942-3.476 3.942-1.978 0-3.367-1.532-3.367-3.798 0-2.378 1.478-3.933 3.478-3.933 2.043 0 3.365 1.567 3.365 3.788"/>
        </g>
    </g>
</svg>
