<svg xmlns="http://www.w3.org/2000/svg" xmlns:xlink="http://www.w3.org/1999/xlink" width="73" height="47" viewBox="0 0 73 47">
    <defs>
        <linearGradient id="c" x1="50%" x2="50%" y1="0%" y2="100%">
            <stop offset="0%" stop-color="#FFF"/>
            <stop offset="100%" stop-color="#E0E0E0"/>
        </linearGradient>
        <rect id="b" width="65" height="39" rx="3"/>
        <filter id="a" width="121.5%" height="135.9%" x="-10.8%" y="-12.8%" filterUnits="objectBoundingBox">
            <feOffset dy="2" in="SourceAlpha" result="shadowOffsetOuter1"/>
            <feGaussianBlur in="shadowOffsetOuter1" result="shadowBlurOuter1" stdDeviation="2"/>
            <feColorMatrix in="shadowBlurOuter1" values="0 0 0 0 0 0 0 0 0 0 0 0 0 0 0 0 0 0 0.5 0"/>
        </filter>
        <path id="d" d="M0 .495h53.3v23.537H0z"/>
    </defs>
    <g fill="none" fill-rule="evenodd">
        <g transform="translate(4 2)">
            <use fill="#000" filter="url(#a)" xlink:href="#b"/>
            <use fill="url(#c)" xlink:href="#b"/>
        </g>
        <g transform="translate(10.5 8.672)">
            <mask id="e" fill="#fff">
                <use xlink:href="#d"/>
            </mask>
            <path fill="#B82327" d="M14.632.495H9.107c-2.44.117-4.435 1.114-5.011 3.17-.301 1.074-.466 2.252-.7 3.364C2.2 12.682 1.143 18.491 0 24.032h43.007c3.324 0 5.607-.712 6.224-3.39.287-1.243.561-2.651.836-4.018C51.135 11.297 52.205 5.97 53.3.494H14.632" mask="url(#e)"/>
        </g>
        <path fill="#FEFEFE" d="M24.685 17.55c.23-.161.528-.895.188-1.201-.107-.097-.288-.125-.538-.082-.233.04-.367.12-.458.245-.146.203-.28.812-.054 1.038.22.22.714.103.862 0zM21.4 16.35a142.03 142.03 0 0 1-.539 3.222c-1.199.013-2.423.06-3.58-.027.22-1.044.376-2.15.593-3.195h-1.292c-.463 2.662-.883 5.366-1.4 7.973h1.319c.207-1.338.401-2.688.673-3.96 1.124-.027 2.473-.076 3.552.028-.222 1.321-.491 2.596-.7 3.932h1.32c.423-2.7.87-5.379 1.4-7.973H21.4zm18.652 2.294c-1.026-.42-1.833.29-2.206.956.084-.297.12-.644.188-.956h-1.023c-.25 1.967-.618 3.814-.97 5.68h1.16c.16-1.108.23-2.6.59-3.66.288-.846 1.041-1.567 2.127-1.174.015-.312.104-.55.134-.846zm.646 4.341c-.106-.28-.134-.741-.107-1.092.06-.789.343-1.75.78-2.185.604-.6 1.795-.5 2.746-.163.03-.325.094-.615.134-.929-1.558-.258-3.038-.097-3.821.738-.768.817-1.272 2.696-.916 3.877.417 1.383 2.284 1.458 3.796.929.066-.279.102-.588.161-.875-.826.436-2.405.662-2.773-.3zm13-4.314c-1.023-.519-1.874.352-2.206.874.094-.269.1-.627.188-.901h-1.023a84.91 84.91 0 0 1-.996 5.68h1.185c.007-.754.153-1.31.269-2.048.247-1.577.611-3.306 2.422-2.786.06-.266.085-.569.162-.819zM23.5 18.643c-.031.004-.03.043-.027.082-.255 1.934-.6 3.777-.968 5.597h1.157c.278-1.948.596-3.854.996-5.68H23.5zm10.174-.11c-.836.066-1.543.31-2.045.847-.617.659-1.115 2.114-.97 3.44.21 1.892 2.531 1.824 4.388 1.366.032-.332.11-.616.162-.928-.766.29-2.094.695-2.88.19-.594-.38-.598-1.345-.404-2.184a65.406 65.406 0 0 1 3.796 0c.078-.595.305-1.242.107-1.83-.262-.775-1.2-.975-2.154-.9zm1.104 2.076H32.06a1.612 1.612 0 0 1 1.535-1.366c.833-.032 1.43.31 1.184 1.366zm-5.491-1.966c-.98-.374-2.173.072-2.691.496.002.018-.012.021-.027.022l.027-.022-.001-.004c.01-.183.073-.31.081-.492h-.996a190.324 190.324 0 0 1-1.426 8.219h1.157c.167-1.05.278-2.158.512-3.14.264 1.034 1.99.836 2.718.437 1.503-.825 2.662-4.748.646-5.516zm-.915 4.615c-.62.664-2.142.654-2.26-.465-.053-.487.126-.997.215-1.501.089-.51.154-1 .242-1.448.61-.755 2.402-.847 2.584.41.157 1.09-.268 2.452-.78 3.004zm29.634-7.073c-.1.882-.232 1.73-.404 2.54-2.838-.912-4.58 1.207-4.548 3.822.005.506.092 1.008.404 1.366.537.616 2.076.764 2.853.246.15-.1.303-.283.403-.41.075-.096.194-.345.215-.274-.04.279-.101.534-.107.847h1.05c.202-2.944.827-5.458 1.291-8.137h-1.157zm-2.584 7.51c-.78.016-1.167-.473-1.184-1.284-.03-1.42.583-2.999 1.83-3.14.581-.066 1.001.07 1.427.218-.39 1.596-.25 4.166-2.073 4.206zm-9.986-5.052c-.056.324-.144.618-.215.928.683-.173 2.81-.706 3.015.219.068.307-.05.633-.135.873-1.923-.185-3.49.14-3.903 1.53-.276.93.031 1.846.62 2.102 1.132.492 2.51-.072 2.987-.847a3.59 3.59 0 0 0-.08.874h.995c.011-.967.15-1.75.297-2.621.125-.742.36-1.476.323-2.13-.086-1.498-2.534-.968-3.904-.928zm1.884 4.587c-.596.592-2.27.76-2.099-.655.143-1.176 1.405-1.426 2.772-1.256-.101.643-.217 1.46-.673 1.911z"/>
    </g>
</svg>
